<svg width="174" height="200" viewBox="0 0 174 200" fill="none" xmlns="http://www.w3.org/2000/svg">
<path d="M1.39746 50L86.5 0.866025V99.134L1.39746 50ZM0.897461 50.866L86 100L0.897461 149.134V50.866ZM86.5 199.134L1.39746 150L86.5 100.866V199.134ZM87.5 199.134V100.866L172.603 150L87.5 199.134ZM173.103 50.866V149.134L88 100L173.103 50.866ZM87.5 99.134V0.866025L172.603 50L87.5 99.134Z" stroke="#F3F3F3"/>
<path d="M0.897461 50.2887L87 0.57735L173.103 50.2887V149.711L87 199.423L0.897461 149.711V50.2887Z" stroke="black"/>
<path d="M26.8784 134.712V65.2889L87.0002 30.5776L147.122 65.2889V134.712L87.0002 169.423L26.8784 134.712Z" stroke="#DDDDDD"/>
<path d="M54.158 81.0387L86.9999 62.0774L119.842 81.0387V118.961L86.9999 137.923L54.158 118.961V81.0387Z" stroke="#DDDDDD"/>
<path d="M74.1636 92.589L87.0004 85.1777L99.8372 92.589V107.412L87.0004 114.823L74.1636 107.412V92.589Z" fill="white" stroke="#DDDDDD"/>
</svg>
