<svg width="192" height="200" viewBox="0 0 192 200" fill="none" xmlns="http://www.w3.org/2000/svg">
<path d="M96 0V200M182.603 50L9.39746 150M182.603 150L9.39746 50" stroke="#F3F3F3"/>
<path d="M9.89746 50.2887L96 0.57735L182.103 50.2887V149.711L96 199.423L9.89746 149.711V50.2887Z" stroke="#F3F3F3"/>
<path d="M96 0.57735L182.103 50.2887V149.711L96 199.423L9.89746 149.711V50.2887L96 0.57735Z" stroke="black"/>
<path d="M35.8784 134.712V65.2889L96.0002 30.5776L156.122 65.2889V134.712L96.0002 169.423L35.8784 134.712Z" stroke="#DDDDDD"/>
<path d="M95.9999 62.0774L128.842 81.0387V118.961L95.9999 137.923L63.158 118.961V81.0387L95.9999 62.0774Z" stroke="#DDDDDD"/>
<path d="M96.0004 85.1777L108.837 92.589V107.412L96.0004 114.823L83.1636 107.412V92.589L96.0004 85.1777Z" fill="white" stroke="#DDDDDD"/>
<path d="M49.1417 25.2749C49.0282 25.5991 48.8615 25.8938 48.6418 26.159C48.422 26.4242 48.1621 26.6433 47.8622 26.8165C47.6322 26.9493 47.3924 27.0471 47.143 27.1099C46.8972 27.1737 46.6494 27.2055 46.3997 27.2053C46.151 27.2016 45.9057 27.1673 45.6638 27.1025C45.4219 27.0377 45.1923 26.9447 44.975 26.8236C44.7587 26.6989 44.5589 26.5481 44.3756 26.3713C44.1932 26.1909 44.0357 25.9857 43.9029 25.7556C43.77 25.5256 43.6711 25.2865 43.606 25.0384C43.5432 24.789 43.5126 24.5406 43.5141 24.2931C43.5165 24.0422 43.5501 23.7957 43.6149 23.5538C43.6798 23.3119 43.7734 23.0834 43.8958 22.8684C44.0192 22.6498 44.17 22.45 44.3481 22.269C44.5272 22.0844 44.7318 21.9257 44.9618 21.7929C45.2618 21.6197 45.5815 21.5043 45.9211 21.4466C46.2593 21.3866 46.5978 21.3896 46.9366 21.4556L46.9107 22.5982C46.6801 22.5269 46.4444 22.5066 46.2035 22.5374C45.9614 22.5659 45.7343 22.6414 45.5224 22.7638C45.3081 22.8875 45.1308 23.044 44.9905 23.2332C44.8502 23.4225 44.7505 23.6274 44.6914 23.848C44.631 24.0663 44.6149 24.2936 44.6431 24.5299C44.67 24.764 44.7446 24.987 44.867 25.199C44.9894 25.411 45.1452 25.5871 45.3345 25.7274C45.5224 25.8655 45.7267 25.9641 45.9473 26.0232C46.1678 26.0823 46.3951 26.0984 46.6292 26.0715C46.8632 26.0446 47.0874 25.9693 47.3016 25.8456C47.5136 25.7232 47.6932 25.5654 47.8403 25.3723C47.986 25.1769 48.0857 24.9614 48.1392 24.7261L49.1417 25.2749ZM52.204 21.7117C52.3602 21.9823 52.4576 22.2629 52.496 22.5535C52.5332 22.8418 52.5178 23.1198 52.4498 23.3875C52.3806 23.653 52.2619 23.9005 52.0936 24.1299C51.9263 24.3558 51.7141 24.543 51.457 24.6914C51.2022 24.8386 50.934 24.9287 50.6525 24.962C50.3719 24.9916 50.0983 24.9707 49.8315 24.8992C49.5656 24.8242 49.3171 24.6985 49.086 24.5222C48.8536 24.3437 48.6593 24.1191 48.5031 23.8484C48.3442 23.5733 48.2456 23.2904 48.2071 22.9999C48.1687 22.7094 48.1841 22.4314 48.2533 22.1659C48.3235 21.8968 48.4422 21.6493 48.6095 21.4234C48.7791 21.1963 48.9913 21.0091 49.2461 20.862C49.5032 20.7135 49.7701 20.6211 50.0467 20.5846C50.3244 20.5446 50.5954 20.561 50.86 20.6338C51.1232 20.7044 51.3717 20.83 51.6054 21.0109C51.8378 21.1894 52.0373 21.423 52.204 21.7117ZM51.2737 22.2488C51.1877 22.1 51.0855 21.9801 50.9668 21.8892C50.8492 21.7948 50.7239 21.7288 50.5909 21.6913C50.4567 21.6515 50.3202 21.6416 50.1814 21.6616C50.0435 21.678 49.9115 21.7227 49.7852 21.7956C49.6589 21.8686 49.553 21.9613 49.4676 22.0737C49.3831 22.1826 49.3246 22.3051 49.2919 22.4413C49.2602 22.5739 49.2558 22.7147 49.2788 22.8638C49.3004 23.0107 49.3542 23.1586 49.4401 23.3074C49.5209 23.4472 49.6194 23.5633 49.7358 23.6554C49.8522 23.7476 49.9763 23.8143 50.1083 23.8553C50.2425 23.8951 50.3799 23.909 50.5203 23.8971C50.6617 23.8816 50.7956 23.8374 50.9219 23.7645C51.0482 23.6916 51.1529 23.5995 51.2361 23.4884C51.3215 23.3759 51.3812 23.2527 51.4152 23.1189C51.4491 22.985 51.4546 22.8435 51.4317 22.6944C51.411 22.5439 51.3583 22.3954 51.2737 22.2488ZM58.3868 20.6003L57.4666 21.1316L56.1385 18.8312C56.102 18.768 56.0551 18.7154 55.9978 18.6734C55.9427 18.63 55.8813 18.5993 55.8137 18.5812C55.7461 18.5631 55.6776 18.559 55.6082 18.569C55.5375 18.5768 55.4706 18.5989 55.4075 18.6353C55.3443 18.6718 55.2917 18.7187 55.2497 18.776C55.2086 18.8298 55.1789 18.8905 55.1608 18.9581C55.145 19.0244 55.1409 19.0929 55.1487 19.1636C55.1587 19.233 55.1819 19.2993 55.2184 19.3624L56.5465 21.6628L55.6229 22.196L54.2948 19.8956C54.2584 19.8325 54.2114 19.7799 54.1541 19.7378C54.099 19.6945 54.0376 19.6637 53.97 19.6456C53.9025 19.6275 53.834 19.6235 53.7646 19.6335C53.6939 19.6412 53.6269 19.6633 53.5638 19.6998C53.5006 19.7362 53.448 19.7831 53.406 19.8405C53.3649 19.8943 53.3353 19.955 53.3171 20.0226C53.3013 20.0889 53.2972 20.1574 53.305 20.2281C53.315 20.2975 53.3382 20.3637 53.3747 20.4269L54.7028 22.7273L53.7793 23.2605L51.6875 19.6374L51.9107 19.5085L52.3212 19.6413C52.3873 19.4589 52.48 19.294 52.5996 19.1469C52.72 18.9961 52.8637 18.8726 53.0306 18.7762C53.1997 18.6786 53.3826 18.6151 53.5792 18.5858C53.778 18.5552 53.9832 18.5825 54.1949 18.6678C54.207 18.5586 54.2335 18.4561 54.2744 18.3603C54.3153 18.2645 54.3655 18.1769 54.4249 18.0975C54.4866 18.0168 54.5563 17.945 54.6342 17.8819C54.7108 17.8167 54.7908 17.76 54.8743 17.7118C55.066 17.6011 55.2661 17.5337 55.4746 17.5095C55.6855 17.484 55.8893 17.4986 56.0863 17.5533C56.2842 17.6044 56.4681 17.6937 56.6379 17.8212C56.8077 17.9487 56.948 18.1082 57.0587 18.2999L58.3868 20.6003ZM63.6709 17.5495L62.7507 18.0808L61.4226 15.7804C61.3862 15.7173 61.3392 15.6647 61.2819 15.6226C61.2268 15.5792 61.1654 15.5485 61.0978 15.5304C61.0303 15.5123 60.9618 15.5082 60.8924 15.5182C60.8216 15.526 60.7547 15.5481 60.6916 15.5845C60.6284 15.621 60.5758 15.6679 60.5338 15.7253C60.4927 15.7791 60.4631 15.8398 60.4449 15.9073C60.4291 15.9736 60.425 16.0421 60.4328 16.1128C60.4428 16.1822 60.466 16.2485 60.5025 16.3117L61.8306 18.612L60.907 19.1452L59.5789 16.8449C59.5425 16.7817 59.4956 16.7291 59.4382 16.6871C59.3831 16.6437 59.3217 16.613 59.2542 16.5948C59.1866 16.5767 59.1181 16.5727 59.0487 16.5827C58.978 16.5904 58.911 16.6125 58.8479 16.649C58.7847 16.6854 58.7321 16.7324 58.6901 16.7897C58.649 16.8435 58.6194 16.9042 58.6013 16.9718C58.5854 17.0381 58.5813 17.1066 58.5891 17.1773C58.5991 17.2467 58.6223 17.313 58.6588 17.3761L59.9869 19.6765L59.0634 20.2097L56.9716 16.5866L57.1948 16.4577L57.6053 16.5906C57.6714 16.4081 57.7642 16.2433 57.8837 16.0961C58.0041 15.9453 58.1478 15.8218 58.3147 15.7254C58.4838 15.6278 58.6667 15.5643 58.8633 15.535C59.0621 15.5044 59.2673 15.5318 59.479 15.6171C59.4911 15.5078 59.5176 15.4053 59.5585 15.3095C59.5994 15.2137 59.6496 15.1261 59.709 15.0467C59.7707 14.966 59.8404 14.8942 59.9183 14.8312C59.9949 14.7659 60.0749 14.7092 60.1584 14.661C60.3501 14.5503 60.5502 14.4829 60.7588 14.4587C60.9696 14.4332 61.1735 14.4478 61.3704 14.5025C61.5683 14.5536 61.7522 14.6429 61.922 14.7704C62.0918 14.8979 62.2321 15.0575 62.3428 15.2492L63.6709 17.5495ZM67.8555 15.1335L67.6323 15.2624L66.9866 14.9722C66.9442 15.1019 66.8936 15.2304 66.8347 15.3576C66.7768 15.4812 66.7087 15.6002 66.6304 15.7146C66.5508 15.8267 66.4619 15.9306 66.3638 16.0263C66.268 16.1208 66.1614 16.2018 66.0442 16.2695C65.7893 16.4167 65.5244 16.5125 65.2494 16.557C64.9766 16.6002 64.7088 16.5895 64.4459 16.5247C64.184 16.4565 63.9361 16.3319 63.7025 16.1511C63.4688 15.9703 63.2647 15.7288 63.0902 15.4266C62.9274 15.1446 62.8268 14.8584 62.7884 14.5679C62.7486 14.2751 62.7634 13.9959 62.8326 13.7304C62.9041 13.4636 63.0248 13.2196 63.1947 12.9982C63.3655 12.7733 63.5784 12.5872 63.8332 12.4401C63.9505 12.3724 64.0751 12.32 64.2071 12.2829C64.339 12.2458 64.4741 12.2219 64.6123 12.2113C64.7505 12.2007 64.8882 12.2023 65.0256 12.2163C65.1652 12.2289 65.3013 12.251 65.4338 12.2828L65.5444 11.6461L65.7677 11.5172L67.8555 15.1335ZM65.8608 13.8269C65.7879 13.7007 65.6928 13.5932 65.5754 13.5046C65.4591 13.4124 65.3331 13.3453 65.1976 13.3032C65.0608 13.2589 64.9203 13.2423 64.7763 13.2533C64.6333 13.2607 64.4986 13.3009 64.3723 13.3738C64.246 13.4467 64.1388 13.5371 64.0508 13.6451C63.965 13.7517 63.9045 13.8709 63.8692 14.0025C63.8362 14.1328 63.8319 14.2737 63.8561 14.425C63.8791 14.5742 63.9361 14.7277 64.0273 14.8855C64.1184 15.0434 64.2235 15.1707 64.3424 15.2674C64.4601 15.3618 64.5836 15.4273 64.713 15.4639C64.8446 15.4992 64.9781 15.5063 65.1133 15.4854C65.2508 15.4631 65.3827 15.4155 65.509 15.3426C65.6353 15.2697 65.7381 15.1743 65.8173 15.0564C65.8975 14.9349 65.9533 14.8049 65.9847 14.6665C66.0148 14.5259 66.0196 14.3833 65.9993 14.2387C65.9799 14.0905 65.9337 13.9532 65.8608 13.8269ZM69.4861 14.1921L68.5626 14.7253L66.4708 11.1022L66.6941 10.9733L67.2016 11.1494C67.2724 10.9281 67.3805 10.7274 67.526 10.5471C67.6725 10.3633 67.8483 10.2122 68.0536 10.0937C68.2746 9.96608 68.5079 9.88849 68.7536 9.86091C68.998 9.83107 69.2365 9.84826 69.469 9.91247C69.7002 9.97443 69.9149 10.0805 70.1129 10.2308C70.3119 10.3776 70.4758 10.5626 70.6047 10.7858L71.8 12.8562L70.8765 13.3894L69.6812 11.319C69.6265 11.2243 69.557 11.1457 69.4728 11.083C69.3872 11.0182 69.2946 10.9724 69.195 10.9457C69.0954 10.919 68.9935 10.9117 68.8892 10.9238C68.7849 10.9359 68.6854 10.9693 68.5907 11.024C68.4937 11.08 68.4128 11.1507 68.3479 11.2363C68.283 11.3219 68.2373 11.4145 68.2106 11.5141C68.1839 11.6137 68.1772 11.7167 68.1906 11.8233C68.2027 11.9276 68.2361 12.0271 68.2908 12.1218L69.4861 14.1921ZM75.961 10.4538L75.7377 10.5827L75.092 10.2925C75.0497 10.4222 74.999 10.5507 74.9402 10.6779C74.8822 10.8015 74.8141 10.9205 74.7358 11.0349C74.6562 11.147 74.5674 11.2509 74.4693 11.3467C74.3734 11.4411 74.2669 11.5221 74.1496 11.5899C73.8948 11.737 73.6272 11.8283 73.347 11.8638C73.0678 11.8957 72.7947 11.8759 72.5279 11.8044C72.2621 11.7294 72.0136 11.6037 71.7825 11.4274C71.5501 11.2489 71.3545 11.022 71.1956 10.7469C71.0381 10.474 70.9401 10.1923 70.9017 9.90173C70.8632 9.61119 70.878 9.33205 70.9459 9.06429C71.0161 8.79523 71.1348 8.54776 71.3021 8.32188C71.4716 8.0947 71.6838 7.90753 71.9387 7.7604C72.0199 7.71352 72.1072 7.67211 72.2007 7.63617C72.2965 7.59892 72.3941 7.57264 72.4935 7.55734C72.5939 7.53848 72.6945 7.53303 72.7953 7.54098C72.8961 7.54893 72.9922 7.57466 73.0834 7.61818L72.1069 5.92673L73.0372 5.38962L75.961 10.4538ZM73.9663 9.14726C73.8933 9.02097 73.7982 8.9135 73.6809 8.82487C73.5645 8.73269 73.4386 8.66558 73.303 8.62355C73.1662 8.57926 73.0258 8.5626 72.8818 8.57358C72.7387 8.581 72.604 8.62117 72.4777 8.69408C72.3514 8.767 72.2449 8.85856 72.1582 8.96877C72.0737 9.07768 72.0145 9.19907 71.9806 9.33295C71.9476 9.46327 71.9425 9.60299 71.9655 9.75212C71.9884 9.90125 72.0442 10.0525 72.1327 10.2059C72.2095 10.3389 72.3061 10.4515 72.4225 10.5437C72.5389 10.6359 72.6637 10.7037 72.797 10.747C72.9325 10.789 73.0705 10.8041 73.2109 10.7922C73.3537 10.7789 73.4882 10.7359 73.6145 10.6629C73.7408 10.59 73.8435 10.4946 73.9228 10.3767C74.003 10.2552 74.0588 10.1252 74.0902 9.98686C74.1202 9.84622 74.1251 9.70358 74.1047 9.55897C74.0853 9.41079 74.0392 9.27356 73.9663 9.14726ZM77.5974 8.32728C77.64 8.31772 77.6807 8.30478 77.7194 8.28846C77.7567 8.26988 77.7935 8.25018 77.8296 8.22934C77.9198 8.17726 77.9994 8.11473 78.0686 8.04174C78.1377 7.96876 78.1953 7.88888 78.2414 7.80211C78.2885 7.71178 78.3214 7.61763 78.34 7.51968C78.3596 7.41817 78.364 7.3164 78.3532 7.21438L79.4223 7.50372C79.4069 7.67498 79.3709 7.84165 79.3141 8.00373C79.2596 8.16451 79.1864 8.31649 79.0947 8.45967C79.0052 8.60155 78.8981 8.73107 78.7733 8.84823C78.652 8.96634 78.5158 9.06902 78.3647 9.15626C78.1099 9.3034 77.8423 9.39471 77.5621 9.4302C77.2842 9.46438 77.0118 9.44573 76.745 9.37424C76.4804 9.30145 76.2326 9.1769 76.0015 9.0006C75.7691 8.82204 75.5722 8.59293 75.4108 8.31328C75.2454 8.02686 75.1428 7.73725 75.1031 7.44446C75.0634 7.15166 75.0788 6.87364 75.1493 6.6104C75.2221 6.34585 75.3434 6.10289 75.5133 5.88152C75.6854 5.65885 75.8989 5.47394 76.1538 5.32681C76.3049 5.23957 76.463 5.17232 76.6282 5.12507C76.7934 5.07782 76.9598 5.05092 77.1274 5.04436C77.2972 5.0365 77.4672 5.04963 77.6373 5.08376C77.806 5.11563 77.9684 5.16772 78.1244 5.24002L77.5974 8.32728ZM76.9714 6.14926C76.9195 6.15822 76.8708 6.17281 76.8253 6.19304C76.7821 6.21196 76.738 6.23445 76.6928 6.26049C76.5666 6.33341 76.4607 6.4261 76.3753 6.53856C76.2908 6.64747 76.2316 6.76886 76.1976 6.90274C76.1659 7.03531 76.1615 7.17617 76.1845 7.3253C76.2061 7.47217 76.2606 7.62116 76.3478 7.77226C76.3674 7.80609 76.3906 7.84378 76.4176 7.88533C76.4469 7.92557 76.4779 7.96629 76.5107 8.00749C76.5445 8.04514 76.5787 8.081 76.6134 8.11508C76.6481 8.14917 76.6836 8.17679 76.7199 8.19795L76.9714 6.14926ZM81.2316 7.41087L80.308 7.94407L78.2163 4.32097L78.4395 4.19207L78.992 4.44592C79.0628 4.22466 79.172 4.02326 79.3198 3.84172C79.4663 3.65792 79.641 3.50743 79.844 3.39024L80.6592 2.91954L81.1905 3.83969L80.3752 4.31039C80.2782 4.36638 80.1973 4.43716 80.1324 4.52272C80.0676 4.60828 80.0218 4.70087 79.9951 4.80048C79.9684 4.90008 79.9618 5.00315 79.9752 5.10969C79.9886 5.21622 80.0232 5.31797 80.0792 5.41495L81.2316 7.41087Z" fill="black"/>
<path d="M164.91 38.4341C164.572 38.4978 164.234 38.5008 163.894 38.4431C163.554 38.3854 163.235 38.27 162.935 38.0968C162.705 37.964 162.5 37.8053 162.321 37.6207C162.143 37.4397 161.991 37.241 161.867 37.0247C161.746 36.8074 161.653 36.5778 161.588 36.3359C161.523 36.094 161.489 35.8487 161.485 35.5999C161.485 35.3502 161.515 35.1018 161.577 34.8547C161.642 34.6066 161.741 34.3675 161.874 34.1375C162.007 33.9074 162.164 33.7022 162.347 33.5218C162.531 33.3427 162.731 33.1919 162.946 33.0695C163.165 32.9461 163.395 32.852 163.637 32.7872C163.879 32.7224 164.123 32.6892 164.371 32.6878C164.622 32.6853 164.87 32.716 165.116 32.7797C165.365 32.8425 165.605 32.9404 165.835 33.0732C166.135 33.2463 166.395 33.4655 166.615 33.7307C166.836 33.9937 167.002 34.2884 167.115 34.6148L166.112 35.1636C166.059 34.9282 165.958 34.714 165.811 34.5208C165.665 34.3254 165.487 34.1665 165.275 34.0441C165.06 33.9204 164.836 33.8451 164.602 33.8182C164.368 33.7913 164.141 33.8074 163.92 33.8665C163.701 33.9234 163.496 34.0231 163.305 34.1656C163.116 34.3059 162.96 34.4821 162.838 34.6941C162.716 34.9061 162.641 35.1291 162.614 35.3632C162.588 35.595 162.605 35.8212 162.664 36.0417C162.723 36.2623 162.823 36.4672 162.963 36.6565C163.104 36.8457 163.281 37.0022 163.495 37.1259C163.707 37.2483 163.934 37.3249 164.174 37.3557C164.417 37.3842 164.653 37.3628 164.884 37.2915L164.91 38.4341ZM168.469 41.1521L168.246 41.0232L168.174 40.3189C168.041 40.347 167.904 40.3674 167.764 40.38C167.628 40.3917 167.491 40.3922 167.353 40.3816C167.216 40.3687 167.082 40.3437 166.95 40.3066C166.82 40.2708 166.697 40.2191 166.579 40.1514C166.324 40.0042 166.109 39.8227 165.933 39.6068C165.759 39.3922 165.635 39.1549 165.559 38.8948C165.487 38.6339 165.471 38.357 165.511 38.0642C165.551 37.7714 165.658 37.4739 165.832 37.1717C165.995 36.8898 166.193 36.6595 166.425 36.481C166.659 36.3002 166.908 36.1734 167.172 36.1006C167.439 36.0291 167.711 36.0115 167.988 36.048C168.268 36.0835 168.535 36.1748 168.79 36.3219C168.908 36.3896 169.015 36.4713 169.113 36.5671C169.211 36.6628 169.3 36.7678 169.378 36.8822C169.456 36.9966 169.524 37.1167 169.58 37.2426C169.639 37.3698 169.688 37.4988 169.727 37.6294L170.333 37.4068L170.557 37.5357L168.469 41.1521ZM168.603 38.7713C168.676 38.645 168.721 38.5089 168.739 38.363C168.761 38.2161 168.756 38.0735 168.725 37.9351C168.695 37.7944 168.639 37.6645 168.558 37.5453C168.48 37.4251 168.377 37.3285 168.251 37.2556C168.125 37.1827 167.993 37.1351 167.855 37.1129C167.72 37.0919 167.587 37.0991 167.455 37.1343C167.326 37.1709 167.202 37.2375 167.083 37.3342C166.965 37.4287 166.861 37.5548 166.769 37.7127C166.678 37.8706 166.621 38.0252 166.596 38.1766C166.573 38.3257 166.578 38.4654 166.611 38.5957C166.647 38.7274 166.707 38.8465 166.793 38.9532C166.881 39.0611 166.988 39.1515 167.114 39.2245C167.241 39.2974 167.375 39.3387 167.517 39.3483C167.662 39.3571 167.802 39.3404 167.938 39.2984C168.075 39.2541 168.201 39.187 168.316 39.0971C168.434 39.0062 168.53 38.8976 168.603 38.7713ZM170.099 42.0935L169.176 41.5603L171.268 37.9372L171.491 38.0661L171.547 38.6715C171.774 38.6221 172.003 38.616 172.234 38.6532C172.467 38.6882 172.685 38.7643 172.888 38.8815L173.703 39.3522L173.172 40.2723L172.356 39.8016C172.259 39.7456 172.158 39.7109 172.051 39.6975C171.944 39.6841 171.841 39.6908 171.742 39.7175C171.642 39.7442 171.55 39.7899 171.464 39.8548C171.378 39.9197 171.308 40.0006 171.252 40.0976L170.099 42.0935ZM175.478 45.199L175.255 45.07L175.183 44.3657C175.05 44.3939 174.913 44.4143 174.774 44.4269C174.638 44.4386 174.501 44.4391 174.362 44.4285C174.225 44.4156 174.091 44.3906 173.959 44.3535C173.829 44.3177 173.706 44.266 173.589 44.1983C173.334 44.0511 173.121 43.8651 172.95 43.6402C172.783 43.4143 172.663 43.1679 172.592 42.9011C172.524 42.6334 172.509 42.3554 172.546 42.0671C172.584 41.7765 172.683 41.4937 172.842 41.2185C172.999 40.9457 173.194 40.7199 173.427 40.5414C173.659 40.3628 173.908 40.236 174.174 40.161C174.442 40.0872 174.716 40.0663 174.995 40.0982C175.277 40.1315 175.545 40.2217 175.8 40.3688C175.881 40.4157 175.96 40.4706 176.038 40.5336C176.118 40.5979 176.19 40.6693 176.253 40.7478C176.319 40.8253 176.374 40.9097 176.418 41.0009C176.461 41.0922 176.487 41.1883 176.495 41.2891L177.472 39.5976L178.402 40.1347L175.478 45.199ZM175.612 42.8182C175.685 42.6919 175.731 42.5558 175.749 42.4098C175.771 42.263 175.766 42.1203 175.734 41.9819C175.704 41.8413 175.648 41.7114 175.567 41.5921C175.489 41.4719 175.387 41.3754 175.261 41.3025C175.134 41.2296 175.002 41.1831 174.863 41.1631C174.726 41.1444 174.592 41.1538 174.459 41.1913C174.329 41.2279 174.206 41.2934 174.088 41.3879C173.97 41.4823 173.867 41.6062 173.779 41.7596C173.702 41.8926 173.653 42.0326 173.631 42.1795C173.609 42.3263 173.613 42.4683 173.642 42.6054C173.674 42.7438 173.73 42.8708 173.81 42.9865C173.893 43.1035 173.998 43.1984 174.124 43.2713C174.25 43.3443 174.384 43.3855 174.526 43.3952C174.671 43.4039 174.812 43.3873 174.947 43.3453C175.084 43.301 175.21 43.2339 175.325 43.1439C175.444 43.053 175.539 42.9445 175.612 42.8182ZM178.174 46.7556L176.063 45.5368L176.595 44.6167L178.706 45.8354C178.769 45.8719 178.836 45.8806 178.907 45.8615C178.978 45.8425 179.032 45.8014 179.068 45.7382C179.106 45.6728 179.108 45.6169 179.075 45.5706C179.042 45.5243 178.993 45.4829 178.93 45.4464L177.969 44.8917C177.809 44.7993 177.677 44.6822 177.572 44.5406C177.468 44.399 177.393 44.2464 177.35 44.0827C177.307 43.9168 177.296 43.7464 177.315 43.5714C177.338 43.3977 177.395 43.2308 177.487 43.0707C177.58 42.9106 177.696 42.7775 177.835 42.6716C177.977 42.5669 178.129 42.4926 178.293 42.4488C178.457 42.4049 178.625 42.3941 178.799 42.4161C178.974 42.436 179.141 42.4921 179.302 42.5846L181.172 43.6647L180.641 44.5848L178.77 43.5047C178.707 43.4683 178.64 43.4596 178.569 43.4786C178.498 43.4977 178.444 43.5388 178.407 43.602C178.37 43.6674 178.36 43.7368 178.377 43.8102C178.396 43.8813 178.438 43.9351 178.501 43.9716L179.461 44.5263C179.619 44.6174 179.753 44.7304 179.861 44.8653C179.971 44.9979 180.051 45.1415 180.1 45.2961C180.149 45.4507 180.165 45.6121 180.149 45.7803C180.133 45.9486 180.08 46.1116 179.989 46.2695C179.896 46.4296 179.779 46.562 179.638 46.6667C179.497 46.7691 179.345 46.8433 179.18 46.8894C179.016 46.9333 178.847 46.9453 178.672 46.9255C178.498 46.9034 178.332 46.8467 178.174 46.7556Z" fill="black"/>
<path d="M184.177 102.203C183.953 101.943 183.781 101.651 183.661 101.328C183.541 101.005 183.481 100.671 183.481 100.324C183.481 100.059 183.517 99.8021 183.587 99.5547C183.655 99.3099 183.751 99.0794 183.876 98.8633C184.004 98.6497 184.156 98.4544 184.333 98.2773C184.51 98.1003 184.705 97.9479 184.919 97.8203C185.135 97.6953 185.366 97.5977 185.61 97.5273C185.858 97.4596 186.114 97.4258 186.38 97.4258C186.646 97.4258 186.902 97.4596 187.149 97.5273C187.397 97.5977 187.627 97.6953 187.841 97.8203C188.057 97.9479 188.254 98.1003 188.431 98.2773C188.608 98.4544 188.759 98.6497 188.884 98.8633C189.011 99.0794 189.109 99.3099 189.177 99.5547C189.247 99.8021 189.282 100.059 189.282 100.324C189.282 100.671 189.222 101.005 189.103 101.328C188.985 101.651 188.813 101.943 188.587 102.203L187.61 101.609C187.787 101.445 187.923 101.251 188.017 101.027C188.113 100.803 188.161 100.569 188.161 100.324C188.161 100.077 188.114 99.8451 188.021 99.6289C187.927 99.4128 187.799 99.224 187.638 99.0625C187.479 98.901 187.29 98.7734 187.071 98.6797C186.855 98.5859 186.625 98.5391 186.38 98.5391C186.135 98.5391 185.905 98.5859 185.688 98.6797C185.475 98.7734 185.287 98.901 185.126 99.0625C184.965 99.224 184.837 99.4128 184.743 99.6289C184.649 99.8451 184.603 100.077 184.603 100.324C184.603 100.569 184.649 100.803 184.743 101.027C184.84 101.251 184.976 101.445 185.153 101.609L184.177 102.203ZM185.731 106.637C185.419 106.637 185.127 106.581 184.856 106.469C184.588 106.357 184.355 106.204 184.157 106.012C183.962 105.819 183.807 105.592 183.692 105.332C183.58 105.074 183.524 104.797 183.524 104.5C183.524 104.206 183.58 103.928 183.692 103.668C183.807 103.41 183.962 103.184 184.157 102.988C184.355 102.796 184.588 102.643 184.856 102.531C185.127 102.419 185.419 102.363 185.731 102.363C186.049 102.363 186.343 102.419 186.614 102.531C186.885 102.643 187.118 102.796 187.313 102.988C187.511 103.184 187.666 103.41 187.778 103.668C187.89 103.928 187.946 104.206 187.946 104.5C187.946 104.797 187.893 105.074 187.786 105.332C187.682 105.592 187.532 105.819 187.337 106.012C187.144 106.204 186.911 106.357 186.638 106.469C186.367 106.581 186.065 106.637 185.731 106.637ZM185.731 105.562C185.903 105.562 186.058 105.534 186.196 105.477C186.337 105.422 186.457 105.346 186.556 105.25C186.657 105.154 186.734 105.04 186.786 104.91C186.841 104.783 186.868 104.646 186.868 104.5C186.868 104.354 186.841 104.216 186.786 104.086C186.734 103.958 186.657 103.846 186.556 103.75C186.457 103.656 186.337 103.582 186.196 103.527C186.058 103.473 185.903 103.445 185.731 103.445C185.57 103.445 185.42 103.473 185.282 103.527C185.144 103.582 185.024 103.656 184.923 103.75C184.821 103.846 184.741 103.958 184.681 104.086C184.623 104.216 184.595 104.354 184.595 104.5C184.595 104.646 184.622 104.783 184.677 104.91C184.731 105.04 184.808 105.154 184.907 105.25C185.006 105.346 185.126 105.422 185.267 105.477C185.407 105.534 185.562 105.562 185.731 105.562ZM183.603 108.293L183.603 107.227L187.786 107.227L187.786 107.484L187.38 107.836C187.536 108.008 187.656 108.202 187.739 108.418C187.825 108.637 187.868 108.865 187.868 109.102C187.868 109.357 187.819 109.598 187.72 109.824C187.623 110.051 187.489 110.249 187.317 110.418C187.148 110.587 186.949 110.72 186.72 110.816C186.493 110.915 186.251 110.965 185.993 110.965L183.603 110.965L183.603 109.898L185.993 109.898C186.103 109.898 186.205 109.878 186.302 109.836C186.401 109.794 186.487 109.737 186.56 109.664C186.632 109.591 186.69 109.507 186.731 109.41C186.773 109.314 186.794 109.211 186.794 109.102C186.794 108.99 186.773 108.884 186.731 108.785C186.69 108.686 186.632 108.6 186.56 108.527C186.487 108.454 186.401 108.397 186.302 108.355C186.205 108.314 186.103 108.293 185.993 108.293L183.603 108.293ZM183.603 114.023L183.603 111.586L184.665 111.586L184.665 114.023C184.665 114.096 184.691 114.159 184.743 114.211C184.795 114.263 184.858 114.289 184.931 114.289C185.006 114.289 185.056 114.263 185.079 114.211C185.103 114.159 185.114 114.096 185.114 114.023L185.114 112.914C185.114 112.729 185.149 112.556 185.22 112.395C185.29 112.233 185.385 112.092 185.505 111.973C185.627 111.853 185.769 111.758 185.931 111.687C186.092 111.62 186.265 111.586 186.45 111.586C186.635 111.586 186.808 111.62 186.97 111.687C187.131 111.758 187.272 111.853 187.392 111.973C187.511 112.092 187.605 112.233 187.673 112.395C187.743 112.556 187.778 112.729 187.778 112.914L187.778 115.074L186.716 115.074L186.716 112.914C186.716 112.841 186.69 112.779 186.638 112.727C186.586 112.674 186.523 112.648 186.45 112.648C186.375 112.648 186.31 112.674 186.255 112.727C186.203 112.779 186.177 112.841 186.177 112.914L186.177 114.023C186.177 114.206 186.146 114.378 186.083 114.539C186.023 114.701 185.938 114.841 185.829 114.961C185.72 115.081 185.588 115.176 185.435 115.246C185.281 115.316 185.113 115.352 184.931 115.352C184.746 115.352 184.573 115.316 184.411 115.246C184.252 115.176 184.112 115.081 183.989 114.961C183.869 114.841 183.774 114.701 183.704 114.539C183.636 114.378 183.603 114.206 183.603 114.023ZM188.923 117.18C188.824 117.18 188.731 117.16 188.646 117.121C188.56 117.085 188.484 117.034 188.419 116.969C188.356 116.904 188.306 116.827 188.267 116.738C188.23 116.652 188.212 116.56 188.212 116.461C188.212 116.362 188.23 116.268 188.267 116.18C188.306 116.094 188.356 116.018 188.419 115.953C188.484 115.891 188.56 115.84 188.646 115.801C188.731 115.764 188.824 115.746 188.923 115.746C189.019 115.746 189.11 115.764 189.196 115.801C189.285 115.84 189.36 115.891 189.423 115.953C189.488 116.018 189.539 116.094 189.575 116.18C189.614 116.268 189.634 116.362 189.634 116.461C189.634 116.56 189.614 116.652 189.575 116.738C189.539 116.827 189.488 116.904 189.423 116.969C189.36 117.034 189.285 117.085 189.196 117.121C189.11 117.16 189.019 117.18 188.923 117.18ZM183.603 116.996L183.603 115.922L187.786 115.922L187.786 116.996L183.603 116.996ZM183.603 120.109L183.603 117.672L184.665 117.672L184.665 120.109C184.665 120.182 184.691 120.245 184.743 120.297C184.795 120.349 184.858 120.375 184.931 120.375C185.006 120.375 185.056 120.349 185.079 120.297C185.103 120.245 185.114 120.182 185.114 120.109L185.114 119C185.114 118.815 185.149 118.642 185.22 118.48C185.29 118.319 185.385 118.178 185.505 118.059C185.627 117.939 185.769 117.844 185.931 117.773C186.092 117.706 186.265 117.672 186.45 117.672C186.635 117.672 186.808 117.706 186.97 117.773C187.131 117.844 187.272 117.939 187.392 118.059C187.511 118.178 187.605 118.319 187.673 118.48C187.743 118.642 187.778 118.815 187.778 119L187.778 121.16L186.716 121.16L186.716 119C186.716 118.927 186.69 118.865 186.638 118.812C186.586 118.76 186.523 118.734 186.45 118.734C186.375 118.734 186.31 118.76 186.255 118.812C186.203 118.865 186.177 118.927 186.177 119L186.177 120.109C186.177 120.292 186.146 120.464 186.083 120.625C186.023 120.786 185.938 120.927 185.829 121.047C185.72 121.167 185.588 121.262 185.435 121.332C185.281 121.402 185.113 121.437 184.931 121.437C184.746 121.437 184.573 121.402 184.411 121.332C184.252 121.262 184.112 121.167 183.989 121.047C183.869 120.927 183.774 120.786 183.704 120.625C183.636 120.464 183.603 120.292 183.603 120.109ZM183.603 124.105C183.603 123.848 183.651 123.605 183.747 123.379C183.846 123.152 183.98 122.953 184.149 122.781C184.321 122.612 184.521 122.478 184.747 122.379C184.974 122.283 185.216 122.234 185.474 122.234L186.716 122.234L186.716 121.715L187.778 121.715L187.778 122.234L189.45 122.234L189.45 123.297L187.778 123.297L187.778 124.914L186.716 124.914L186.716 123.297L185.474 123.297C185.362 123.297 185.256 123.318 185.157 123.359C185.061 123.401 184.976 123.458 184.903 123.531C184.83 123.604 184.772 123.69 184.728 123.789C184.686 123.888 184.665 123.993 184.665 124.105L184.665 124.914L183.603 124.914L183.603 124.105ZM184.626 127.18C184.613 127.221 184.604 127.263 184.599 127.305C184.596 127.346 184.595 127.388 184.595 127.43C184.595 127.534 184.609 127.634 184.638 127.73C184.666 127.827 184.707 127.917 184.759 128C184.813 128.086 184.879 128.161 184.954 128.227C185.032 128.294 185.118 128.349 185.212 128.391L184.427 129.172C184.286 129.073 184.16 128.958 184.048 128.828C183.936 128.701 183.841 128.561 183.763 128.41C183.685 128.262 183.626 128.104 183.587 127.937C183.545 127.773 183.524 127.604 183.524 127.43C183.524 127.135 183.579 126.858 183.688 126.598C183.798 126.34 183.95 126.113 184.146 125.918C184.341 125.725 184.573 125.573 184.841 125.461C185.112 125.349 185.409 125.293 185.731 125.293C186.062 125.293 186.364 125.349 186.638 125.461C186.911 125.573 187.144 125.725 187.337 125.918C187.53 126.113 187.679 126.34 187.786 126.598C187.893 126.858 187.946 127.135 187.946 127.43C187.946 127.604 187.925 127.775 187.884 127.941C187.842 128.108 187.782 128.266 187.704 128.414C187.626 128.565 187.53 128.706 187.415 128.836C187.303 128.966 187.177 129.081 187.036 129.18L184.626 127.18ZM186.825 127.727C186.843 127.677 186.855 127.628 186.86 127.578C186.866 127.531 186.868 127.482 186.868 127.43C186.868 127.284 186.841 127.146 186.786 127.016C186.734 126.888 186.659 126.776 186.56 126.68C186.461 126.586 186.341 126.512 186.2 126.457C186.062 126.402 185.906 126.375 185.731 126.375C185.692 126.375 185.648 126.376 185.599 126.379C185.549 126.384 185.498 126.391 185.446 126.398C185.397 126.409 185.349 126.421 185.302 126.434C185.255 126.447 185.213 126.464 185.177 126.484L186.825 127.727ZM183.603 130.785L183.603 129.719L187.786 129.719L187.786 129.977L187.38 130.328C187.536 130.5 187.656 130.694 187.739 130.91C187.825 131.129 187.868 131.357 187.868 131.594C187.868 131.849 187.819 132.09 187.72 132.316C187.623 132.543 187.489 132.741 187.317 132.91C187.148 133.079 186.949 133.212 186.72 133.309C186.493 133.408 186.251 133.457 185.993 133.457L183.603 133.457L183.603 132.391L185.993 132.391C186.103 132.391 186.205 132.37 186.302 132.328C186.401 132.286 186.487 132.229 186.56 132.156C186.632 132.083 186.69 131.999 186.731 131.902C186.773 131.806 186.794 131.703 186.794 131.594C186.794 131.482 186.773 131.376 186.731 131.277C186.69 131.178 186.632 131.092 186.56 131.02C186.487 130.947 186.401 130.889 186.302 130.848C186.205 130.806 186.103 130.785 185.993 130.785L183.603 130.785ZM186.954 137.875L186.169 137.094C186.278 137.055 186.376 137.001 186.462 136.934C186.55 136.866 186.625 136.789 186.685 136.703C186.744 136.62 186.79 136.529 186.821 136.43C186.853 136.331 186.868 136.229 186.868 136.125C186.868 135.979 186.838 135.841 186.778 135.711C186.718 135.583 186.634 135.471 186.524 135.375C186.418 135.281 186.29 135.207 186.142 135.152C185.993 135.098 185.829 135.07 185.649 135.07C185.504 135.07 185.367 135.098 185.239 135.152C185.112 135.207 185 135.281 184.903 135.375C184.807 135.471 184.731 135.583 184.677 135.711C184.622 135.841 184.595 135.979 184.595 136.125C184.595 136.229 184.609 136.329 184.638 136.426C184.666 136.522 184.707 136.612 184.759 136.695C184.813 136.781 184.879 136.857 184.954 136.922C185.032 136.99 185.118 137.044 185.212 137.086L184.427 137.867C184.286 137.768 184.16 137.654 184.048 137.523C183.936 137.396 183.841 137.257 183.763 137.105C183.685 136.957 183.626 136.799 183.587 136.633C183.545 136.469 183.524 136.299 183.524 136.125C183.524 135.831 183.579 135.553 183.688 135.293C183.8 135.035 183.953 134.809 184.146 134.613C184.338 134.421 184.563 134.268 184.821 134.156C185.079 134.044 185.355 133.988 185.649 133.988C185.97 133.988 186.269 134.044 186.548 134.156C186.826 134.268 187.069 134.421 187.274 134.613C187.483 134.809 187.647 135.035 187.767 135.293C187.886 135.553 187.946 135.831 187.946 136.125C187.946 136.299 187.924 136.47 187.88 136.637C187.836 136.806 187.771 136.966 187.685 137.117C187.601 137.271 187.498 137.411 187.376 137.539C187.254 137.669 187.113 137.781 186.954 137.875ZM182.009 139.406L183.083 139.406L183.075 140C183.075 140.104 183.092 140.204 183.126 140.301C183.16 140.397 183.207 140.486 183.267 140.566C183.326 140.65 183.398 140.723 183.481 140.785C183.562 140.848 183.651 140.898 183.747 140.937C183.698 140.82 183.648 140.701 183.599 140.578C183.549 140.458 183.524 140.337 183.524 140.215C183.524 139.957 183.57 139.715 183.661 139.488C183.752 139.262 183.881 139.062 184.048 138.891C184.217 138.721 184.422 138.587 184.661 138.488C184.903 138.392 185.174 138.344 185.474 138.344L187.786 138.344L187.786 139.406L185.474 139.406C185.325 139.406 185.195 139.427 185.083 139.469C184.974 139.513 184.881 139.572 184.806 139.645C184.733 139.717 184.678 139.802 184.642 139.898C184.605 139.997 184.587 140.103 184.587 140.215C184.587 140.324 184.612 140.427 184.661 140.523C184.713 140.622 184.781 140.708 184.864 140.781C184.948 140.854 185.041 140.911 185.146 140.953C185.252 140.995 185.362 141.016 185.474 141.016L187.786 141.016L187.786 142.09L184.13 142.09C183.836 142.087 183.56 142.03 183.302 141.918C183.044 141.806 182.819 141.652 182.626 141.457C182.433 141.264 182.281 141.039 182.169 140.781C182.057 140.523 182.001 140.247 182.001 139.953L182.009 139.406Z" fill="black"/>
<path d="M138.064 181.954L136.943 180.013L135.972 180.573C135.839 180.65 135.728 180.747 135.639 180.864C135.552 180.984 135.49 181.113 135.452 181.252C135.415 181.391 135.406 181.533 135.424 181.679C135.441 181.828 135.488 181.97 135.565 182.103C135.642 182.236 135.74 182.346 135.859 182.433C135.978 182.524 136.107 182.588 136.245 182.625C136.384 182.663 136.526 182.672 136.672 182.654C136.82 182.638 136.96 182.592 137.093 182.515L138.064 181.954ZM135.823 178.074L136.794 177.514L139.595 182.365L137.653 183.486C137.475 183.589 137.29 183.664 137.098 183.712C136.907 183.762 136.716 183.785 136.525 183.781C136.332 183.781 136.143 183.755 135.957 183.703C135.769 183.655 135.592 183.583 135.426 183.487C135.256 183.392 135.102 183.275 134.962 183.136C134.819 182.999 134.697 182.841 134.594 182.663C134.497 182.496 134.425 182.322 134.377 182.139C134.326 181.958 134.299 181.773 134.296 181.586C134.291 181.399 134.31 181.214 134.354 181.029C134.398 180.844 134.464 180.668 134.553 180.499L133.283 179.541L134.315 178.945L135.302 179.679L136.384 179.045L135.823 178.074ZM131.484 181.761C131.441 181.771 131.401 181.784 131.362 181.8C131.325 181.819 131.288 181.838 131.252 181.859C131.162 181.911 131.082 181.974 131.013 182.047C130.944 182.12 130.886 182.2 130.84 182.287C130.793 182.377 130.76 182.471 130.742 182.569C130.722 182.67 130.718 182.772 130.728 182.874L129.659 182.585C129.675 182.414 129.711 182.247 129.767 182.085C129.822 181.924 129.895 181.772 129.987 181.629C130.076 181.487 130.183 181.358 130.308 181.24C130.429 181.122 130.566 181.02 130.717 180.932C130.972 180.785 131.239 180.694 131.519 180.658C131.797 180.624 132.07 180.643 132.337 180.714C132.601 180.787 132.849 180.912 133.08 181.088C133.312 181.267 133.509 181.496 133.671 181.775C133.836 182.062 133.939 182.351 133.978 182.644C134.018 182.937 134.003 183.215 133.932 183.478C133.859 183.743 133.738 183.986 133.568 184.207C133.396 184.43 133.183 184.615 132.928 184.762C132.777 184.849 132.618 184.916 132.453 184.964C132.288 185.011 132.122 185.038 131.954 185.044C131.784 185.052 131.614 185.039 131.444 185.005C131.275 184.973 131.113 184.921 130.957 184.849L131.484 181.761ZM132.11 183.939C132.162 183.93 132.211 183.916 132.256 183.896C132.299 183.877 132.344 183.854 132.389 183.828C132.515 183.755 132.621 183.663 132.706 183.55C132.791 183.441 132.85 183.32 132.884 183.186C132.916 183.053 132.92 182.912 132.897 182.763C132.875 182.616 132.821 182.467 132.734 182.316C132.714 182.283 132.691 182.245 132.664 182.203C132.635 182.163 132.604 182.122 132.571 182.081C132.537 182.043 132.503 182.008 132.468 181.974C132.433 181.939 132.398 181.912 132.362 181.891L132.11 183.939ZM126.784 183.293L128.895 182.074L129.426 182.994L127.316 184.213C127.252 184.25 127.211 184.303 127.192 184.375C127.173 184.446 127.182 184.513 127.218 184.576C127.256 184.641 127.303 184.671 127.36 184.665C127.417 184.66 127.477 184.639 127.54 184.602L128.501 184.047C128.661 183.955 128.829 183.899 129.004 183.879C129.179 183.859 129.348 183.871 129.511 183.915C129.676 183.961 129.83 184.037 129.971 184.141C130.111 184.247 130.227 184.38 130.319 184.54C130.412 184.701 130.469 184.867 130.491 185.041C130.511 185.216 130.499 185.385 130.455 185.549C130.411 185.713 130.336 185.864 130.23 186.004C130.125 186.145 129.993 186.262 129.833 186.355L127.962 187.435L127.431 186.515L129.302 185.434C129.365 185.398 129.406 185.344 129.425 185.273C129.444 185.202 129.435 185.135 129.399 185.072C129.361 185.006 129.306 184.963 129.234 184.942C129.162 184.922 129.095 184.931 129.032 184.968L128.071 185.522C127.914 185.613 127.749 185.672 127.578 185.699C127.408 185.728 127.244 185.725 127.086 185.69C126.927 185.655 126.779 185.589 126.641 185.491C126.504 185.393 126.389 185.265 126.298 185.107C126.206 184.947 126.15 184.78 126.13 184.605C126.111 184.432 126.123 184.263 126.166 184.097C126.21 183.933 126.284 183.78 126.389 183.639C126.495 183.499 126.626 183.384 126.784 183.293ZM126.711 189.479C126.662 189.393 126.632 189.303 126.623 189.209C126.612 189.117 126.618 189.026 126.642 188.937C126.667 188.85 126.708 188.768 126.765 188.69C126.821 188.615 126.892 188.553 126.978 188.504C127.064 188.454 127.154 188.423 127.249 188.41C127.343 188.401 127.434 188.407 127.521 188.429C127.608 188.454 127.69 188.494 127.767 188.549C127.841 188.605 127.903 188.676 127.953 188.762C128.001 188.845 128.031 188.933 128.042 189.026C128.052 189.122 128.046 189.213 128.023 189.298C127.999 189.387 127.959 189.469 127.903 189.544C127.846 189.622 127.775 189.685 127.689 189.735C127.603 189.784 127.513 189.814 127.42 189.823C127.325 189.836 127.233 189.83 127.144 189.806C127.056 189.785 126.974 189.745 126.899 189.686C126.822 189.631 126.759 189.562 126.711 189.479ZM124.21 184.779L125.14 184.242L127.232 187.865L126.302 188.402L124.21 184.779ZM122.573 185.725L123.503 185.188L126.427 190.252L125.496 190.789L122.573 185.725ZM123.436 191.369C123.387 191.284 123.358 191.194 123.348 191.1C123.337 191.007 123.343 190.916 123.367 190.827C123.392 190.741 123.433 190.658 123.491 190.58C123.547 190.506 123.618 190.444 123.703 190.394C123.789 190.345 123.879 190.314 123.974 190.301C124.068 190.292 124.159 190.298 124.247 190.32C124.333 190.345 124.415 190.385 124.492 190.44C124.566 190.496 124.628 190.567 124.678 190.652C124.726 190.736 124.756 190.824 124.767 190.917C124.778 191.013 124.772 191.104 124.749 191.189C124.725 191.278 124.685 191.36 124.629 191.434C124.571 191.512 124.5 191.576 124.414 191.626C124.329 191.675 124.239 191.704 124.145 191.714C124.05 191.726 123.958 191.721 123.869 191.697C123.781 191.675 123.7 191.635 123.624 191.577C123.547 191.522 123.485 191.453 123.436 191.369ZM120.935 186.67L121.866 186.133L123.957 189.756L123.027 190.293L120.935 186.67ZM119.299 188.796C119.256 188.806 119.216 188.819 119.177 188.835C119.14 188.854 119.103 188.874 119.067 188.894C118.976 188.947 118.897 189.009 118.828 189.082C118.759 189.155 118.701 189.235 118.655 189.322C118.608 189.412 118.575 189.506 118.556 189.604C118.537 189.706 118.532 189.807 118.543 189.909L117.474 189.62C117.489 189.449 117.525 189.282 117.582 189.12C117.637 188.959 117.71 188.807 117.802 188.664C117.891 188.522 117.998 188.393 118.123 188.276C118.244 188.157 118.38 188.055 118.532 187.968C118.786 187.82 119.054 187.729 119.334 187.694C119.612 187.659 119.884 187.678 120.151 187.75C120.416 187.822 120.664 187.947 120.895 188.123C121.127 188.302 121.324 188.531 121.485 188.811C121.651 189.097 121.753 189.387 121.793 189.679C121.833 189.972 121.818 190.25 121.747 190.513C121.674 190.778 121.553 191.021 121.383 191.242C121.211 191.465 120.997 191.65 120.742 191.797C120.591 191.884 120.433 191.951 120.268 191.999C120.103 192.046 119.936 192.073 119.769 192.079C119.599 192.087 119.429 192.074 119.259 192.04C119.09 192.008 118.928 191.956 118.772 191.884L119.299 188.796ZM119.925 190.975C119.977 190.966 120.025 190.951 120.071 190.931C120.114 190.912 120.158 190.889 120.203 190.863C120.33 190.79 120.436 190.698 120.521 190.585C120.605 190.476 120.665 190.355 120.699 190.221C120.73 190.088 120.735 189.948 120.712 189.798C120.69 189.652 120.636 189.503 120.548 189.352C120.529 189.318 120.506 189.28 120.479 189.238C120.449 189.198 120.418 189.157 120.386 189.116C120.352 189.079 120.318 189.043 120.283 189.009C120.248 188.975 120.213 188.947 120.176 188.926L119.925 190.975ZM115.665 189.713L116.588 189.18L118.68 192.803L118.457 192.932L117.949 192.756C117.878 192.977 117.77 193.178 117.625 193.358C117.478 193.542 117.302 193.693 117.097 193.811C116.876 193.939 116.643 194.017 116.397 194.044C116.153 194.074 115.914 194.057 115.682 193.993C115.451 193.931 115.236 193.824 115.038 193.674C114.839 193.527 114.675 193.342 114.546 193.119L113.351 191.049L114.274 190.516L115.47 192.586C115.524 192.681 115.594 192.759 115.678 192.822C115.764 192.887 115.856 192.933 115.956 192.959C116.055 192.986 116.157 192.993 116.262 192.981C116.366 192.969 116.465 192.936 116.56 192.881C116.657 192.825 116.738 192.754 116.803 192.669C116.868 192.583 116.914 192.491 116.94 192.391C116.967 192.291 116.974 192.188 116.96 192.082C116.948 191.977 116.915 191.878 116.86 191.783L115.665 189.713ZM111.2 196.16L111.484 195.09C111.573 195.165 111.668 195.223 111.77 195.263C111.873 195.306 111.976 195.332 112.081 195.341C112.183 195.351 112.284 195.345 112.386 195.323C112.487 195.3 112.583 195.263 112.673 195.211C112.799 195.138 112.904 195.043 112.987 194.926C113.067 194.81 113.122 194.681 113.151 194.538C113.178 194.399 113.179 194.251 113.152 194.095C113.125 193.94 113.067 193.784 112.977 193.628C112.904 193.502 112.812 193.397 112.701 193.314C112.59 193.231 112.47 193.171 112.34 193.134C112.209 193.099 112.074 193.09 111.936 193.106C111.796 193.124 111.663 193.169 111.536 193.242C111.446 193.294 111.366 193.357 111.297 193.43C111.228 193.503 111.171 193.583 111.124 193.669C111.077 193.76 111.045 193.854 111.026 193.952C111.006 194.053 111.002 194.155 111.013 194.257L109.944 193.968C109.959 193.796 109.995 193.63 110.052 193.468C110.106 193.307 110.179 193.155 110.271 193.012C110.361 192.87 110.468 192.74 110.593 192.623C110.714 192.505 110.85 192.402 111.001 192.315C111.256 192.168 111.524 192.077 111.804 192.041C112.083 192.009 112.355 192.028 112.621 192.097C112.884 192.168 113.129 192.287 113.355 192.454C113.58 192.621 113.767 192.832 113.914 193.087C114.074 193.365 114.176 193.652 114.218 193.949C114.26 194.246 114.249 194.532 114.185 194.807C114.12 195.085 114.006 195.34 113.843 195.573C113.677 195.807 113.467 195.997 113.212 196.145C113.061 196.232 112.902 196.298 112.736 196.343C112.567 196.389 112.396 196.413 112.222 196.414C112.047 196.419 111.874 196.4 111.702 196.358C111.528 196.317 111.361 196.251 111.2 196.16ZM108.196 195.207C108.154 195.216 108.113 195.229 108.074 195.245C108.037 195.264 108 195.284 107.964 195.305C107.874 195.357 107.794 195.419 107.725 195.492C107.656 195.565 107.598 195.645 107.552 195.732C107.505 195.822 107.472 195.916 107.454 196.014C107.434 196.116 107.43 196.218 107.44 196.32L106.371 196.03C106.387 195.859 106.423 195.692 106.479 195.53C106.534 195.369 106.607 195.217 106.699 195.074C106.788 194.932 106.895 194.803 107.02 194.686C107.142 194.568 107.278 194.465 107.429 194.378C107.684 194.231 107.951 194.139 108.231 194.104C108.509 194.07 108.782 194.088 109.049 194.16C109.313 194.232 109.561 194.357 109.792 194.533C110.024 194.712 110.221 194.941 110.383 195.221C110.548 195.507 110.651 195.797 110.69 196.089C110.73 196.382 110.715 196.66 110.644 196.924C110.571 197.188 110.45 197.431 110.28 197.652C110.108 197.875 109.895 198.06 109.64 198.207C109.489 198.294 109.331 198.362 109.165 198.409C109 198.456 108.834 198.483 108.666 198.49C108.496 198.497 108.326 198.484 108.156 198.45C107.988 198.418 107.825 198.366 107.669 198.294L108.196 195.207ZM108.822 197.385C108.874 197.376 108.923 197.361 108.968 197.341C109.011 197.322 109.056 197.299 109.101 197.273C109.227 197.201 109.333 197.108 109.418 196.995C109.503 196.886 109.562 196.765 109.596 196.631C109.628 196.499 109.632 196.358 109.609 196.209C109.587 196.062 109.533 195.913 109.446 195.762C109.426 195.728 109.403 195.69 109.376 195.649C109.347 195.608 109.316 195.568 109.283 195.526C109.249 195.489 109.215 195.453 109.18 195.419C109.145 195.385 109.11 195.357 109.074 195.336L108.822 197.385Z" fill="black"/>
<path d="M41.4502 173.095C41.5791 172.872 41.7328 172.674 41.9112 172.5C42.0861 172.327 42.2786 172.182 42.4888 172.062C42.6976 171.945 42.9183 171.855 43.1509 171.791C43.3821 171.729 43.6185 171.697 43.8601 171.695C44.1018 171.693 44.3432 171.723 44.5846 171.784C44.8224 171.846 45.0529 171.941 45.2762 172.07L46.7376 172.914L43.9368 177.765L42.4754 176.921C42.2521 176.793 42.0548 176.64 41.8834 176.462C41.7085 176.286 41.5614 176.093 41.4422 175.883C41.3229 175.673 41.233 175.451 41.1723 175.217C41.1104 174.986 41.0785 174.75 41.0767 174.508C41.0735 174.269 41.1037 174.029 41.1671 173.789C41.2269 173.55 41.3213 173.319 41.4502 173.095ZM42.4211 173.656C42.3052 173.857 42.2348 174.067 42.21 174.287C42.1828 174.506 42.198 174.72 42.2556 174.927C42.3095 175.136 42.4035 175.33 42.5374 175.509C42.669 175.688 42.8352 175.835 43.0359 175.951L43.5197 176.23L45.1994 173.321L44.7156 173.041C44.5149 172.925 44.3051 172.854 44.0862 172.827C43.8638 172.801 43.6494 172.815 43.4431 172.87C43.2332 172.927 43.0402 173.021 42.8643 173.154C42.6847 173.288 42.537 173.455 42.4211 173.656ZM38.5531 174.332C38.6026 174.246 38.6657 174.176 38.7425 174.121C38.8171 174.065 38.8988 174.025 38.9878 174.001C39.0754 173.98 39.1673 173.974 39.2635 173.985C39.3562 173.996 39.4453 174.026 39.531 174.076C39.6167 174.125 39.6888 174.188 39.7473 174.264C39.8022 174.341 39.8422 174.422 39.8673 174.509C39.8889 174.597 39.8951 174.687 39.886 174.781C39.8746 174.874 39.8441 174.963 39.7946 175.049C39.7465 175.132 39.6851 175.202 39.6106 175.258C39.5325 175.316 39.4507 175.356 39.3654 175.378C39.2764 175.402 39.1856 175.408 39.093 175.397C38.9968 175.387 38.9058 175.357 38.8201 175.307C38.7344 175.258 38.6641 175.195 38.6092 175.118C38.5508 175.042 38.5096 174.96 38.4858 174.871C38.4607 174.784 38.4544 174.693 38.4671 174.598C38.4763 174.504 38.5049 174.416 38.5531 174.332ZM41.3723 169.816L42.3026 170.354L40.2108 173.977L39.2805 173.44L41.3723 169.816ZM38.6761 168.26L40.787 169.479L40.2558 170.399L38.1448 169.18C38.0817 169.143 38.0145 169.135 37.9434 169.154C37.8723 169.173 37.8185 169.214 37.782 169.277C37.7442 169.343 37.742 169.398 37.7754 169.445C37.8088 169.491 37.8571 169.533 37.9202 169.569L38.881 170.124C39.0411 170.216 39.1735 170.333 39.2782 170.475C39.3828 170.616 39.4571 170.769 39.501 170.933C39.5435 171.099 39.5548 171.269 39.535 171.444C39.5129 171.618 39.4557 171.785 39.3632 171.945C39.2708 172.105 39.1548 172.238 39.0155 172.344C38.8739 172.448 38.7212 172.523 38.5576 172.567C38.394 172.61 38.2253 172.621 38.0516 172.599C37.8766 172.579 37.7091 172.523 37.549 172.431L35.6782 171.351L36.2094 170.431L38.0802 171.511C38.1433 171.547 38.2105 171.556 38.2816 171.537C38.3528 171.518 38.4066 171.477 38.4431 171.413C38.4808 171.348 38.4908 171.279 38.473 171.205C38.454 171.134 38.4129 171.08 38.3497 171.044L37.389 170.489C37.2311 170.398 37.0979 170.285 36.9893 170.15C36.8794 170.018 36.8 169.874 36.7509 169.719C36.7019 169.565 36.6853 169.403 36.7012 169.235C36.7172 169.067 36.7707 168.904 36.8618 168.746C36.9543 168.586 37.0713 168.453 37.2129 168.349C37.3533 168.246 37.5059 168.172 37.6708 168.126C37.8345 168.082 38.0038 168.07 38.1788 168.09C38.3524 168.112 38.5182 168.169 38.6761 168.26ZM36.1085 166.777L37.032 167.311L34.9402 170.934L34.7169 170.805L34.6605 170.199C34.4335 170.249 34.2045 170.255 33.9734 170.218C33.741 170.183 33.5233 170.107 33.3203 169.989L32.505 169.519L33.0363 168.599L33.8516 169.069C33.9485 169.125 34.0503 169.16 34.1568 169.173C34.2634 169.187 34.3664 169.18 34.466 169.153C34.5656 169.127 34.6582 169.081 34.7438 169.016C34.8294 168.951 34.9001 168.87 34.9561 168.773L36.1085 166.777ZM31.2839 164.556C31.3973 164.531 31.5145 164.513 31.6354 164.502C31.7527 164.491 31.8706 164.49 31.9891 164.498C32.1063 164.509 32.2217 164.53 32.3352 164.563C32.4478 164.592 32.5549 164.635 32.6564 164.694C32.8796 164.823 33.0666 164.984 33.2172 165.176C33.3679 165.368 33.4759 165.579 33.5414 165.809C33.6034 166.041 33.6173 166.285 33.5832 166.542C33.5456 166.8 33.4519 167.058 33.3022 167.318L32.1459 169.32L31.2258 168.789L32.382 166.786C32.4523 166.665 32.4974 166.545 32.5173 166.427C32.5337 166.31 32.5292 166.201 32.5038 166.099C32.4784 165.997 32.4337 165.905 32.3698 165.823C32.3037 165.74 32.2221 165.67 32.1251 165.614C32.0304 165.56 31.9289 165.53 31.8208 165.524C31.709 165.52 31.6007 165.536 31.4959 165.571C31.3911 165.607 31.2946 165.659 31.2064 165.729C31.117 165.8 31.0442 165.885 30.9883 165.982L29.832 167.984L28.9085 167.451L31.0003 163.828L31.2235 163.957L31.2839 164.556ZM30.1598 161.503L31.0901 162.04L28.2014 167.043L27.9782 166.914L27.8614 166.265C27.7324 166.296 27.5981 166.317 27.4585 166.33C27.3189 166.343 27.1817 166.343 27.0471 166.331C26.9089 166.321 26.7738 166.297 26.6419 166.26C26.5099 166.223 26.3853 166.17 26.2681 166.103C26.0132 165.956 25.8008 165.771 25.631 165.55C25.4575 165.33 25.3355 165.088 25.265 164.824C25.1922 164.56 25.1757 164.281 25.2154 163.988C25.2538 163.698 25.3557 163.409 25.5211 163.123C25.693 162.825 25.8964 162.585 26.1314 162.402C26.3651 162.221 26.6147 162.096 26.8802 162.027C27.1422 161.959 27.4113 161.945 27.6876 161.988C27.9616 162.029 28.2261 162.123 28.4809 162.27C28.5621 162.317 28.6381 162.373 28.7089 162.438C28.7774 162.501 28.8427 162.57 28.9047 162.645C28.9631 162.721 29.0196 162.8 29.0742 162.883C29.1265 162.964 29.1758 163.045 29.2223 163.126L30.1598 161.503ZM26.448 163.658C26.3595 163.812 26.3049 163.963 26.2842 164.114C26.2612 164.263 26.2674 164.403 26.3026 164.535C26.3366 164.669 26.397 164.791 26.4837 164.901C26.5704 165.011 26.6769 165.103 26.8032 165.176C26.9295 165.249 27.0621 165.295 27.2009 165.315C27.3374 165.334 27.4721 165.324 27.6051 165.287C27.7367 165.252 27.8625 165.187 27.9824 165.094C28.1001 165 28.2032 164.876 28.2917 164.723C28.3764 164.576 28.4301 164.428 28.4531 164.279C28.4738 164.129 28.4672 163.986 28.4332 163.853C28.3992 163.719 28.3407 163.596 28.2575 163.485C28.1721 163.373 28.0662 163.28 27.9399 163.207C27.8136 163.134 27.6804 163.089 27.5403 163.071C27.4002 163.053 27.2637 163.063 27.1308 163.101C26.9978 163.138 26.8726 163.204 26.7549 163.299C26.6349 163.392 26.5327 163.512 26.448 163.658ZM24.2818 159.949C24.5051 160.078 24.6907 160.241 24.8388 160.438C24.9855 160.637 25.091 160.852 25.1552 161.085C25.2158 161.318 25.2324 161.558 25.2048 161.804C25.1749 162.048 25.0956 162.282 24.9667 162.505L24.3456 163.581L24.7955 163.841L24.2643 164.761L23.8143 164.501L22.9784 165.949L22.0582 165.418L22.8942 163.97L21.4937 163.161L22.0249 162.241L23.4254 163.05L24.0465 161.974C24.1025 161.877 24.1372 161.775 24.1506 161.669C24.1627 161.564 24.1554 161.462 24.1287 161.363C24.102 161.263 24.0569 161.17 23.9933 161.082C23.9285 160.996 23.8475 160.925 23.7506 160.869L23.0503 160.465L23.5815 159.545L24.2818 159.949ZM19.3111 163.223C19.3606 163.137 19.4237 163.067 19.5005 163.012C19.5751 162.956 19.6568 162.916 19.7457 162.892C19.8334 162.87 19.9253 162.865 20.0215 162.875C20.1142 162.887 20.2033 162.917 20.289 162.966C20.3747 163.016 20.4468 163.079 20.5053 163.154C20.5602 163.231 20.6002 163.313 20.6253 163.4C20.6469 163.487 20.6531 163.578 20.644 163.672C20.6326 163.765 20.6021 163.854 20.5526 163.94C20.5045 164.023 20.4431 164.093 20.3686 164.149C20.2905 164.206 20.2087 164.246 20.1234 164.269C20.0344 164.293 19.9436 164.299 19.851 164.288C19.7548 164.277 19.6638 164.247 19.5781 164.198C19.4924 164.148 19.4221 164.085 19.3672 164.008C19.3088 163.933 19.2676 163.85 19.2438 163.761C19.2187 163.675 19.2124 163.584 19.2251 163.489C19.2343 163.395 19.2629 163.306 19.3111 163.223ZM22.1303 158.707L23.0606 159.244L20.9688 162.867L20.0385 162.33L22.1303 158.707ZM16.8575 158.121C17.0137 157.85 17.208 157.626 17.4404 157.447C17.6715 157.271 17.92 157.145 18.1859 157.07C18.4504 156.997 18.7241 156.977 19.0069 157.008C19.2862 157.039 19.5543 157.13 19.8114 157.278C20.0663 157.425 20.2785 157.612 20.448 157.84C20.614 158.068 20.7327 158.315 20.8042 158.582C20.8722 158.85 20.8876 159.128 20.8504 159.416C20.812 159.707 20.7146 159.987 20.5584 160.258C20.3995 160.533 20.2039 160.76 19.9715 160.938C19.7391 161.117 19.4906 161.243 19.2261 161.315C18.958 161.389 18.6843 161.41 18.4051 161.378C18.1235 161.345 17.8554 161.255 17.6005 161.108C17.3434 160.959 17.1299 160.774 16.96 160.553C16.7866 160.332 16.6652 160.089 16.596 159.824C16.5255 159.561 16.5101 159.283 16.5498 158.99C16.5883 158.699 16.6908 158.41 16.8575 158.121ZM17.7878 158.658C17.7018 158.807 17.6492 158.956 17.6298 159.104C17.6068 159.253 17.6123 159.394 17.6463 159.528C17.679 159.664 17.7387 159.788 17.8254 159.898C17.9085 160.009 18.0133 160.101 18.1396 160.174C18.2659 160.247 18.3991 160.292 18.5392 160.31C18.6757 160.329 18.8111 160.318 18.9453 160.278C19.076 160.239 19.2002 160.173 19.3179 160.078C19.4342 159.986 19.5354 159.866 19.6213 159.717C19.702 159.577 19.7532 159.434 19.7749 159.287C19.7965 159.14 19.7922 158.999 19.7617 158.864C19.7291 158.728 19.6725 158.602 19.5919 158.486C19.5078 158.372 19.4026 158.278 19.2763 158.205C19.15 158.132 19.0179 158.087 18.8801 158.071C18.74 158.053 18.6034 158.063 18.4705 158.101C18.3376 158.138 18.2123 158.204 18.0946 158.299C17.9747 158.392 17.8724 158.512 17.7878 158.658ZM16.4876 155.449L17.4111 155.982L15.3193 159.606L15.096 159.477L14.9947 158.949C14.7677 158.998 14.5398 159.005 14.311 158.969C14.0786 158.934 13.8597 158.858 13.6545 158.739C13.4335 158.611 13.2496 158.448 13.1029 158.249C12.9548 158.052 12.8505 157.837 12.7898 157.604C12.7279 157.373 12.7125 157.134 12.7436 156.887C12.7712 156.641 12.8494 156.407 12.9784 156.184L14.1737 154.113L15.0972 154.647L13.9019 156.717C13.8472 156.812 13.8138 156.911 13.8017 157.015C13.7883 157.122 13.795 157.225 13.8217 157.325C13.8483 157.424 13.893 157.516 13.9556 157.6C14.0182 157.685 14.0969 157.754 14.1916 157.809C14.2886 157.865 14.3903 157.899 14.4969 157.913C14.6034 157.926 14.7065 157.92 14.8061 157.893C14.9057 157.866 14.9983 157.82 15.0838 157.756C15.1681 157.693 15.2376 157.614 15.2923 157.52L16.4876 155.449Z" fill="black"/>
<path d="M8.39746 82.3088L8.39746 83.6682L6.58887 84.7463L8.39746 85.8284L8.39746 87.1799L5.59668 85.4612L2.7959 87.1799L2.7959 85.8284L4.60449 84.7463L2.7959 83.6682L2.7959 82.3088L5.59668 84.0276L8.39746 82.3088ZM5.03809 78.8245L6.10059 78.8245L6.10059 82.1057L5.03809 82.1057L5.03809 78.8245ZM8.39746 76.7034L8.39746 77.8245L2.7959 77.8245L2.7959 73.9026L3.91699 73.9026L3.91699 76.7034L5.03809 76.7034L5.03809 75.0237L6.15918 75.0237L6.15918 76.7034L8.39746 76.7034ZM8.39746 69.8792L8.39746 70.137L7.82324 70.551C7.91439 70.6526 8.00032 70.7607 8.08105 70.8752C8.15918 70.9872 8.22819 71.1057 8.28809 71.2307C8.34538 71.3557 8.39095 71.4846 8.4248 71.6174C8.45866 71.7476 8.47559 71.8805 8.47559 72.0159C8.47559 72.3101 8.42611 72.5875 8.32715 72.8479C8.22819 73.1057 8.08496 73.3323 7.89746 73.5276C7.70736 73.7203 7.47559 73.8726 7.20215 73.9846C6.92871 74.0966 6.61751 74.1526 6.26855 74.1526C5.94303 74.1526 5.64486 74.0966 5.37402 73.9846C5.10059 73.8726 4.86621 73.7203 4.6709 73.5276C4.47559 73.3323 4.32454 73.1057 4.21777 72.8479C4.1084 72.5875 4.05371 72.3101 4.05371 72.0159C4.05371 71.8805 4.07064 71.7463 4.10449 71.6135C4.13835 71.4807 4.18522 71.3518 4.24512 71.2268C4.30501 71.1018 4.37532 70.9833 4.45605 70.8713C4.53678 70.7568 4.62402 70.65 4.71777 70.551L4.22168 70.137L4.22168 69.8792L8.39746 69.8792ZM6.26855 70.9534C6.12272 70.9534 5.9821 70.982 5.84668 71.0393C5.70866 71.094 5.58756 71.1695 5.4834 71.2659C5.37663 71.3622 5.29199 71.4755 5.22949 71.6057C5.16439 71.7333 5.13184 71.87 5.13184 72.0159C5.13184 72.1617 5.15657 72.2997 5.20605 72.4299C5.25553 72.5575 5.32845 72.6695 5.4248 72.7659C5.52116 72.8596 5.64095 72.9338 5.78418 72.9885C5.9248 73.0432 6.08626 73.0706 6.26855 73.0706C6.45085 73.0706 6.61361 73.0432 6.75684 72.9885C6.89746 72.9338 7.01595 72.8596 7.1123 72.7659C7.20866 72.6695 7.28157 72.5575 7.33105 72.4299C7.38053 72.2997 7.40527 72.1617 7.40527 72.0159C7.40527 71.87 7.37402 71.7333 7.31152 71.6057C7.24642 71.4755 7.16178 71.3622 7.05762 71.2659C6.95085 71.1695 6.82975 71.094 6.69434 71.0393C6.55631 70.982 6.41439 70.9534 6.26855 70.9534ZM5.0459 65.4065L5.83105 66.1877C5.72168 66.2268 5.62402 66.2802 5.53809 66.3479C5.44954 66.4156 5.37532 66.4924 5.31543 66.5784C5.25553 66.6617 5.20996 66.7528 5.17871 66.8518C5.14746 66.9508 5.13184 67.0523 5.13184 67.1565C5.13184 67.3023 5.16178 67.4403 5.22168 67.5706C5.28157 67.6982 5.36621 67.8101 5.47559 67.9065C5.58236 68.0002 5.70996 68.0745 5.8584 68.1292C6.00684 68.1838 6.1709 68.2112 6.35059 68.2112C6.49642 68.2112 6.63314 68.1838 6.76074 68.1292C6.88835 68.0745 7.00032 68.0002 7.09668 67.9065C7.19303 67.8101 7.26855 67.6982 7.32324 67.5706C7.37793 67.4403 7.40527 67.3023 7.40527 67.1565C7.40527 67.0523 7.39095 66.9521 7.3623 66.8557C7.33366 66.7594 7.29329 66.6695 7.24121 66.5862C7.18652 66.5002 7.12142 66.4247 7.0459 66.3596C6.96777 66.2919 6.88184 66.2372 6.78809 66.1956L7.57324 65.4143C7.71387 65.5133 7.84017 65.6278 7.95215 65.7581C8.06413 65.8857 8.15918 66.025 8.2373 66.176C8.31543 66.3245 8.37402 66.482 8.41309 66.6487C8.45475 66.8127 8.47559 66.982 8.47559 67.1565C8.47559 67.4508 8.4209 67.7281 8.31152 67.9885C8.19954 68.2463 8.0472 68.4729 7.85449 68.6682C7.66178 68.8609 7.43652 69.0133 7.17871 69.1252C6.9209 69.2372 6.64486 69.2932 6.35059 69.2932C6.03027 69.2932 5.73079 69.2372 5.45215 69.1252C5.1735 69.0133 4.93131 68.8609 4.72559 68.6682C4.51725 68.4729 4.35319 68.2463 4.2334 67.9885C4.11361 67.7281 4.05371 67.4508 4.05371 67.1565C4.05371 66.982 4.07585 66.8114 4.12012 66.6448C4.16439 66.4755 4.22949 66.3153 4.31543 66.1643C4.39876 66.0107 4.50163 65.87 4.62402 65.7424C4.74642 65.6122 4.88704 65.5002 5.0459 65.4065ZM8.39746 62.7854C8.39746 63.0432 8.34928 63.2854 8.25293 63.512C8.15397 63.7385 8.01986 63.9377 7.85058 64.1096C7.67871 64.2789 7.47949 64.413 7.25293 64.512C7.02637 64.6083 6.78418 64.6565 6.52637 64.6565L5.28418 64.6565L5.28418 65.176L4.22168 65.176L4.22168 64.6565L2.5498 64.6565L2.5498 63.594L4.22168 63.594L4.22168 61.9768L5.28418 61.9768L5.28418 63.594L6.52637 63.594C6.63835 63.594 6.74381 63.5732 6.84277 63.5315C6.93913 63.4898 7.02376 63.4325 7.09668 63.3596C7.1696 63.2867 7.22819 63.2008 7.27246 63.1018C7.31413 63.0028 7.33496 62.8974 7.33496 62.7854L7.33496 61.9768L8.39746 61.9768L8.39746 62.7854ZM6.26855 57.3323C6.58105 57.3323 6.87272 57.3883 7.14355 57.5002C7.41178 57.6122 7.64486 57.7646 7.84277 57.9573C8.03808 58.15 8.19303 58.3765 8.30762 58.637C8.4196 58.8948 8.47558 59.1721 8.47558 59.469C8.47558 59.7633 8.4196 60.0406 8.30762 60.301C8.19303 60.5588 8.03808 60.7854 7.84277 60.9807C7.64486 61.1734 7.41178 61.3258 7.14355 61.4377C6.87272 61.5497 6.58105 61.6057 6.26855 61.6057C5.95085 61.6057 5.65657 61.5497 5.38574 61.4377C5.11491 61.3258 4.88183 61.1734 4.68652 60.9807C4.48861 60.7854 4.33366 60.5588 4.22168 60.301C4.1097 60.0406 4.05371 59.7633 4.05371 59.469C4.05371 59.1721 4.1071 58.8948 4.21387 58.637C4.31803 58.3765 4.46777 58.15 4.66308 57.9573C4.85579 57.7646 5.08887 57.6122 5.3623 57.5002C5.63314 57.3883 5.93522 57.3323 6.26855 57.3323ZM6.26855 58.4065C6.09668 58.4065 5.94173 58.4351 5.80371 58.4924C5.66308 58.5471 5.54329 58.6226 5.44433 58.719C5.34277 58.8153 5.26595 58.9286 5.21387 59.0588C5.15918 59.1864 5.13183 59.3232 5.13183 59.469C5.13183 59.6148 5.15918 59.7528 5.21387 59.8831C5.26595 60.0107 5.34277 60.1226 5.44433 60.219C5.54329 60.3127 5.66308 60.387 5.80371 60.4417C5.94173 60.4963 6.09668 60.5237 6.26855 60.5237C6.43001 60.5237 6.57975 60.4963 6.71777 60.4417C6.85579 60.387 6.97558 60.3127 7.07715 60.219C7.17871 60.1226 7.25944 60.0107 7.31933 59.8831C7.37663 59.7528 7.40527 59.6148 7.40527 59.469C7.40527 59.3232 7.37793 59.1864 7.32324 59.0588C7.26855 58.9286 7.19173 58.8153 7.09277 58.719C6.99381 58.6226 6.87402 58.5471 6.7334 58.4924C6.59277 58.4351 6.43782 58.4065 6.26855 58.4065ZM8.39746 55.676L8.39746 56.7424L4.21387 56.7424L4.21387 56.4846L4.70996 56.1331C4.55371 55.9612 4.43392 55.7659 4.35058 55.5471C4.26465 55.3284 4.22168 55.1018 4.22168 54.8674L4.22168 53.926L5.28418 53.926L5.28418 54.8674C5.28418 54.9794 5.30501 55.0849 5.34668 55.1838C5.38834 55.2828 5.44564 55.3687 5.51855 55.4417C5.59147 55.5146 5.67741 55.5719 5.77637 55.6135C5.87532 55.6552 5.98079 55.676 6.09277 55.676L8.39746 55.676Z" fill="black"/>
</svg>
